<svg width="278" height="241" viewBox="0 0 278 241" fill="none" xmlns="http://www.w3.org/2000/svg">
<path d="M14.842 166.466H29.7182V190.826C29.7181 191.59 29.9187 192.341 30.2999 193.003C30.6811 193.665 31.2294 194.215 31.8897 194.597C32.55 194.979 33.299 195.18 34.0615 195.181C34.8239 195.181 35.573 194.979 36.2333 194.597L84.8355 166.466H91.7806V197.407C91.7851 201.352 93.3503 205.134 96.1328 207.923C98.9154 210.713 102.688 212.282 106.623 212.286H173.364L221.966 240.417C222.626 240.799 223.375 241 224.138 241C224.9 241 225.649 240.799 226.31 240.417C226.97 240.035 227.518 239.485 227.899 238.823C228.281 238.161 228.481 237.41 228.481 236.646V212.286H243.357C247.292 212.281 251.065 210.712 253.847 207.923C256.63 205.134 258.195 201.352 258.199 197.407V101.756C258.195 97.8111 256.63 94.0291 253.847 91.2397C251.065 88.4503 247.292 86.8813 243.357 86.8768H222.193L271.61 37.336C275.702 33.2344 278 27.6714 278 21.8708C278 16.0703 275.701 10.5073 271.61 6.40574C267.519 2.30416 261.969 -5.10357e-05 256.183 8.47801e-10C250.397 5.10374e-05 244.848 2.30436 240.757 6.40601L166.419 80.9299V55.9364C166.414 51.9917 164.849 48.2098 162.067 45.4204C159.285 42.631 155.512 41.0619 151.577 41.0573H14.842C10.9071 41.0619 7.13461 42.631 4.35219 45.4204C1.56978 48.2098 0.00459806 51.9916 0 55.9364L0 151.589C0.00517294 155.534 1.57062 159.315 4.35299 162.104C7.13536 164.893 10.9075 166.461 14.842 166.466ZM243.36 95.5853C244.992 95.5872 246.556 96.2379 247.71 97.3947C248.864 98.5515 249.513 100.12 249.515 101.756V197.407C249.513 199.043 248.864 200.611 247.71 201.768C246.556 202.925 244.992 203.575 243.36 203.577H224.14C222.988 203.577 221.883 204.036 221.069 204.853C220.254 205.669 219.797 206.777 219.797 207.932V229.104L176.702 204.161C176.042 203.779 175.293 203.578 174.53 203.578H106.623C104.991 203.576 103.426 202.925 102.272 201.769C101.118 200.612 100.469 199.043 100.467 197.407V166.466H151.577C155.512 166.461 159.284 164.893 162.066 162.104C164.848 159.315 166.414 155.534 166.419 151.589V138.435L172.365 136.258C172.959 136.04 173.498 135.695 173.945 135.247L183.753 125.415C183.961 125.447 184.17 125.464 184.38 125.466H223.448C224.6 125.466 225.705 125.007 226.519 124.191C227.334 123.374 227.791 122.267 227.791 121.112C227.791 119.957 227.334 118.849 226.519 118.033C225.705 117.216 224.6 116.757 223.448 116.757H192.389L213.517 95.5761C213.593 95.5799 213.667 95.5875 213.744 95.5875L243.36 95.5853ZM137.543 139.749L147.696 115.087L162.991 130.42L137.543 139.749ZM170.879 126.008L164.667 119.78L252.241 31.9874L258.449 38.2151L170.879 126.008ZM246.9 12.564C249.369 10.1077 252.706 8.72922 256.184 8.72922C259.662 8.72922 262.999 10.1077 265.468 12.564C267.918 15.0391 269.293 18.3845 269.293 21.8713C269.293 25.3581 267.918 28.7035 265.468 31.1786L264.593 32.0565L246.025 13.442L246.9 12.564ZM239.882 19.6005L246.094 25.8288L158.52 113.622L152.305 107.394L239.882 19.6005ZM8.68682 55.9364C8.68869 54.3005 9.33778 52.732 10.4917 51.5752C11.6456 50.4184 13.2101 49.7677 14.842 49.7659H151.577C153.209 49.7677 154.774 50.4185 155.928 51.5753C157.081 52.7321 157.73 54.3005 157.732 55.9364V89.4322C157.732 89.4991 157.739 89.5645 157.742 89.6309L143.092 104.318C142.688 104.723 142.367 105.204 142.148 105.734L125.742 145.575C125.42 146.356 125.332 147.214 125.488 148.045C125.645 148.875 126.039 149.642 126.623 150.252C127.206 150.862 127.954 151.288 128.776 151.479C129.597 151.67 130.456 151.617 131.248 151.327L157.732 141.618V151.589C157.73 153.225 157.081 154.794 155.927 155.95C154.774 157.107 153.209 157.758 151.577 157.759H83.6714C82.909 157.76 82.16 157.961 81.4997 158.343L38.405 183.284V162.112C38.405 160.957 37.9474 159.849 37.1328 159.033C36.3183 158.216 35.2135 157.757 34.0616 157.757H14.842C13.2105 157.756 11.6463 157.105 10.4925 155.949C9.33862 154.793 8.68926 153.225 8.68682 151.589V55.9364ZM227.791 183.386C227.791 184.541 227.334 185.648 226.519 186.465C225.705 187.282 224.6 187.74 223.448 187.74H141.504C140.352 187.74 139.247 187.282 138.433 186.465C137.618 185.648 137.161 184.541 137.161 183.386C137.161 182.231 137.618 181.124 138.433 180.307C139.247 179.49 140.352 179.032 141.504 179.032H223.448C224.6 179.032 225.705 179.49 226.519 180.307C227.334 181.124 227.791 182.231 227.791 183.386ZM227.791 152.247C227.791 153.402 227.334 154.51 226.519 155.326C225.705 156.143 224.6 156.602 223.448 156.602H184.466C183.314 156.602 182.209 156.143 181.394 155.326C180.58 154.51 180.122 153.402 180.122 152.247C180.122 151.093 180.58 149.985 181.394 149.169C182.209 148.352 183.314 147.893 184.466 147.893H223.448C224.6 147.893 225.705 148.352 226.519 149.169C227.334 149.985 227.791 151.093 227.791 152.247ZM46.076 116.472C48.5837 116.472 51.0351 115.727 53.1202 114.33C55.2054 112.934 56.8305 110.949 57.7902 108.626C58.75 106.303 59.0011 103.748 58.5119 101.282C58.0227 98.8163 56.8151 96.5514 55.0419 94.7738C53.2687 92.9961 51.0095 91.7855 48.5499 91.2951C46.0904 90.8047 43.541 91.0564 41.2242 92.0186C38.9074 92.9807 36.9273 94.6099 35.5341 96.7002C34.141 98.7906 33.3975 101.248 33.3976 103.762C33.4014 107.132 34.7384 110.362 37.1153 112.745C39.4921 115.128 42.7146 116.468 46.076 116.472ZM46.076 99.76C46.8656 99.7599 47.6375 99.9945 48.294 100.434C48.9506 100.874 49.4624 101.499 49.7646 102.23C50.0669 102.961 50.146 103.766 49.992 104.543C49.838 105.319 49.4579 106.032 48.8996 106.592C48.3413 107.152 47.63 107.533 46.8555 107.687C46.0811 107.842 45.2784 107.763 44.5489 107.46C43.8194 107.157 43.1959 106.644 42.7572 105.986C42.3185 105.327 42.0844 104.554 42.0844 103.762C42.0855 102.701 42.5064 101.684 43.2547 100.934C44.003 100.183 45.0176 99.7613 46.076 99.76ZM83.2121 116.472C85.7198 116.472 88.1712 115.727 90.2562 114.33C92.3413 112.933 93.9664 110.948 94.926 108.626C95.8856 106.303 96.1367 103.747 95.6474 101.282C95.1582 98.816 93.9506 96.5512 92.1773 94.7736C90.4041 92.996 88.1449 91.7855 85.6853 91.2951C83.2258 90.8047 80.6765 91.0565 78.3597 92.0186C76.043 92.9807 74.0628 94.61 72.6697 96.7003C71.2766 98.7906 70.5331 101.248 70.5332 103.762C70.5369 107.132 71.8736 110.362 74.25 112.745C76.6264 115.127 79.8484 116.468 83.2094 116.472H83.2121ZM83.2121 99.76C84.0017 99.76 84.7735 99.9947 85.43 100.434C86.0865 100.874 86.5982 101.499 86.9004 102.231C87.2025 102.962 87.2816 103.767 87.1276 104.543C86.9735 105.319 86.5933 106.032 86.035 106.592C85.4767 107.152 84.7654 107.533 83.991 107.687C83.2166 107.842 82.4139 107.763 81.6844 107.46C80.9549 107.157 80.3315 106.644 79.8928 105.986C79.4541 105.327 79.22 104.554 79.22 103.762C79.2211 102.702 79.6417 101.685 80.3896 100.934C81.1374 100.184 82.1515 99.7619 83.2094 99.76H83.2121ZM120.344 116.472C122.852 116.472 125.303 115.726 127.388 114.328C129.472 112.931 131.097 110.946 132.056 108.623C133.015 106.301 133.266 103.745 132.776 101.28C132.286 98.8142 131.079 96.5497 129.305 94.7724C127.532 92.9952 125.273 91.785 122.813 91.2948C120.354 90.8047 117.805 91.0567 115.488 92.0189C113.172 92.9811 111.192 94.6104 109.799 96.7006C108.406 98.7909 107.662 101.248 107.662 103.762C107.666 107.132 109.003 110.363 111.38 112.746C113.757 115.128 116.98 116.469 120.342 116.472H120.344ZM120.344 99.76C121.134 99.7598 121.906 99.9943 122.563 100.434C123.219 100.874 123.731 101.499 124.034 102.23C124.336 102.961 124.415 103.766 124.261 104.542C124.107 105.319 123.727 106.032 123.169 106.592C122.611 107.151 121.899 107.533 121.125 107.687C120.35 107.842 119.548 107.763 118.818 107.46C118.089 107.157 117.465 106.644 117.026 105.986C116.588 105.328 116.353 104.554 116.353 103.762C116.355 102.702 116.775 101.685 117.523 100.935C118.27 100.185 119.284 99.7622 120.342 99.76H120.344Z" fill="#840000"/>
</svg>
