<svg width="66" height="66" viewBox="0 0 66 66" fill="none" xmlns="http://www.w3.org/2000/svg">
<path d="M33.0001 0C14.8038 0 0 14.8037 0 33C0 51.1963 14.8038 66 33.0001 66C51.1963 66 66 51.1963 66 33C66 14.8037 51.1963 0 33.0001 0ZM33.0001 53.2383C21.8406 53.2383 12.7617 44.1594 12.7617 33C12.7617 21.8406 21.8406 12.7617 33.0001 12.7617C44.1595 12.7617 53.2384 21.8406 53.2384 33C53.2384 44.1594 44.1596 53.2383 33.0001 53.2383ZM33.0001 15.8555C23.5464 15.8555 15.8555 23.5465 15.8555 33C15.8555 42.4535 23.5466 50.1445 33.0001 50.1445C42.4536 50.1445 50.1446 42.4535 50.1446 33C50.1446 23.5465 42.4537 15.8555 33.0001 15.8555ZM42.8461 28.2985L32.9163 39.7303C32.639 40.0496 32.243 40.2414 31.8206 40.2612C31.7965 40.2623 31.7724 40.2628 31.7484 40.2628C31.3513 40.2628 30.9685 40.1101 30.68 39.8346L23.2536 32.7419C22.6357 32.1518 22.6133 31.1728 23.2033 30.5549C23.7934 29.9372 24.7726 29.9146 25.3903 30.5046L31.6441 36.4772L40.5104 26.2698C41.0706 25.6246 42.0479 25.5562 42.6927 26.1164C43.3376 26.6765 43.4063 27.6535 42.8461 28.2985Z" fill="#840000"/>
</svg>
