<svg width="19" height="28" viewBox="0 0 19 28" fill="none" xmlns="http://www.w3.org/2000/svg">
<path d="M10.2305 22.7065C10.2303 22.7067 10.2301 22.7069 10.2299 22.7071C10.2033 22.7336 10.1754 22.7588 10.1463 22.7826C10.133 22.7936 10.119 22.803 10.1053 22.8133C10.089 22.8256 10.073 22.8382 10.056 22.8496C10.0396 22.8605 10.0227 22.87 10.0058 22.88C9.99044 22.8892 9.97541 22.8989 9.95957 22.9073C9.94244 22.9165 9.92483 22.9242 9.90732 22.9325C9.89084 22.9403 9.87457 22.9485 9.85766 22.9555C9.84069 22.9625 9.82334 22.9682 9.8061 22.9744C9.78795 22.9809 9.77007 22.9879 9.75154 22.9935C9.7343 22.9987 9.71679 23.0025 9.69934 23.0069C9.68043 23.0117 9.66174 23.0169 9.64246 23.0208C9.62226 23.0248 9.60189 23.0271 9.58158 23.03C9.56483 23.0324 9.54829 23.0356 9.53133 23.0373C9.45591 23.0447 9.3799 23.0447 9.30449 23.0373C9.28752 23.0356 9.27098 23.0325 9.25423 23.03C9.23392 23.0271 9.21356 23.0248 9.19336 23.0208C9.17408 23.0169 9.15538 23.0117 9.13648 23.0069C9.11908 23.0025 9.10152 22.9987 9.08428 22.9935C9.06575 22.9879 9.04781 22.9809 9.02971 22.9744C9.01247 22.9682 8.99513 22.9625 8.97816 22.9555C8.96124 22.9485 8.94498 22.9403 8.92849 22.9325C8.91099 22.9242 8.89337 22.9165 8.87624 22.9073C8.8604 22.8989 8.84538 22.8892 8.82997 22.88C8.81316 22.87 8.79619 22.8605 8.77982 22.8496C8.76285 22.8382 8.74685 22.8256 8.73053 22.8133C8.71685 22.8031 8.70279 22.7936 8.68948 22.7826C8.66045 22.7588 8.63249 22.7337 8.60593 22.7071C8.60572 22.7069 8.6055 22.7067 8.60529 22.7065L0.561066 14.6623C0.112293 14.2135 0.112293 13.4859 0.561066 13.0371C1.00984 12.5883 1.73748 12.5883 2.18625 13.0371L8.26877 19.1196V1.20873C8.26877 0.57406 8.78327 0.0595703 9.41794 0.0595703C10.0526 0.0595703 10.5671 0.57406 10.5671 1.20873V19.1196L16.6496 13.0371C17.0983 12.5883 17.826 12.5883 18.2747 13.0371C18.7235 13.4859 18.7235 14.2135 18.2747 14.6623L10.2305 22.7065Z" fill="#252525"/>
<path d="M1.37373 25.3408H17.4622C18.0968 25.3408 18.6113 25.8553 18.6113 26.49C18.6113 27.1246 18.0968 27.6392 17.4622 27.6392H1.37368C0.739006 27.6392 0.224516 27.1247 0.224516 26.49C0.224516 25.8554 0.739059 25.3408 1.37373 25.3408Z" fill="#252525"/>
</svg>
