<svg width="28" height="28" viewBox="0 0 28 28" fill="none" xmlns="http://www.w3.org/2000/svg">
    <path
        d="M12.4849 9.50829C12.4849 10.3687 13.1842 11.0696 14.0462 11.0696C14.9083 11.0696 15.6076 10.3687 15.6076 9.50829C15.6076 8.64786 14.9083 7.94694 14.0462 7.94694C13.1842 7.94694 12.4849 8.64786 12.4849 9.50829ZM11.7982 19.8079C11.7982 20.2908 12.1901 20.6827 12.673 20.6827H15.4195C15.9024 20.6827 16.2942 20.2908 16.2942 19.8079C16.2942 19.3251 15.9024 18.9332 15.4195 18.9332H14.9209V12.9415C14.9209 12.4586 14.5291 12.0668 14.0462 12.0668H12.673C12.1901 12.0668 11.7982 12.4586 11.7982 12.9415C11.7982 13.4244 12.1901 13.8162 12.673 13.8162H13.1715V18.9332H12.673C12.1901 18.9332 11.7982 19.3251 11.7982 19.8079ZM2.56135 14.3148C2.56135 7.98205 7.7135 2.8299 14.0462 2.8299C20.379 2.8299 25.5311 7.98205 25.5311 14.3148C25.5311 20.6475 20.379 25.7997 14.0462 25.7997C7.7135 25.7997 2.56135 20.6475 2.56135 14.3148ZM0.81194 14.3148C0.81194 21.6119 6.74909 27.5491 14.0462 27.5491C21.3434 27.5491 27.2805 21.6119 27.2805 14.3148C27.2805 7.01765 21.3434 1.08049 14.0462 1.08049C6.74909 1.08049 0.81194 7.01765 0.81194 14.3148Z"
        fill="#252525" stroke="#252525" stroke-width="0.376119" />
</svg>
