<svg width="21" height="25" viewBox="0 0 21 25" fill="none" xmlns="http://www.w3.org/2000/svg">
<path d="M4.26231 6.95707C4.26231 8.90252 5.1845 10.6362 6.61389 11.7449C2.96928 13.2163 0.390234 16.7902 0.390234 20.9562C0.390234 22.818 1.90478 24.3326 3.76662 24.3326H16.8721C18.734 24.3326 20.2485 22.818 20.2485 20.9562C20.2485 16.7902 17.6695 13.2163 14.0249 11.7449C15.4542 10.6362 16.3764 8.90252 16.3764 6.95707C16.3764 3.61711 13.6593 0.9 10.3194 0.9C6.97942 0.9 4.26231 3.61711 4.26231 6.95707ZM6.24945 6.95707C6.24945 4.713 8.07531 2.88714 10.3194 2.88714C12.5634 2.88714 14.3893 4.713 14.3893 6.95707C14.3893 9.20114 12.5634 11.027 10.3194 11.027C8.07531 11.027 6.24945 9.20114 6.24945 6.95707ZM3.76662 22.3454C3.00067 22.3454 2.37737 21.7221 2.37737 20.9561C2.37737 16.5769 5.94018 13.0141 10.3194 13.0141C14.6987 13.0141 18.2615 16.5769 18.2615 20.9561C18.2614 21.7221 17.6381 22.3454 16.8721 22.3454H3.76662Z" fill="#A5A5A5" stroke="#A5A5A5" stroke-width="0.2"/>
</svg>
