<?xml version="1.0" standalone="no"?>
<svg version="1.0" xmlns="http://www.w3.org/2000/svg"
 width="512.000000pt" height="512.000000pt" viewBox="0 0 512.000000 512.000000"
 preserveAspectRatio="xMidYMid meet">

<g transform="translate(0.000000,512.000000) scale(0.100000,-0.100000)"
fill="#000000" stroke="none">
<path d="M900 5064 c-99 -27 -173 -89 -219 -184 l-26 -55 0 -2060 0 -2060 26
-56 c34 -72 96 -134 168 -168 l56 -26 1450 0 1450 0 56 26 c72 34 134 96 168
168 l26 56 0 2060 0 2060 -27 57 c-35 74 -103 141 -176 170 l-57 23 -1420 2
c-1227 2 -1427 0 -1475 -13z m2931 -121 c66 -34 105 -87 119 -164 7 -36 9
-730 8 -2050 l-3 -1994 -23 -48 c-28 -55 -78 -100 -131 -116 -57 -17 -2838
-16 -2895 1 -52 16 -121 84 -136 135 -8 27 -10 603 -8 2080 l3 2041 30 43 c19
27 50 54 84 71 l53 28 1422 0 1422 0 55 -27z"/>
<path d="M1692 4528 c-16 -16 -15 -63 2 -77 9 -8 192 -10 666 -9 641 3 653 3
666 23 11 16 11 25 1 45 l-13 25 -655 3 c-501 2 -658 -1 -667 -10z"/>
<path d="M1032 4038 c-9 -9 -12 -106 -12 -374 l0 -363 22 -15 c20 -14 114 -16
815 -16 780 0 793 0 813 20 19 19 20 33 20 368 0 298 -2 351 -16 370 l-15 22
-808 0 c-614 0 -810 -3 -819 -12z m1548 -373 l0 -285 -730 0 -730 0 0 285 0
285 730 0 730 0 0 -285z"/>
<path d="M1326 3824 c-23 -22 -20 -60 6 -78 20 -14 85 -16 515 -16 284 0 502
4 516 9 33 13 43 46 23 76 l-16 25 -515 0 c-454 0 -515 -2 -529 -16z"/>
<path d="M1326 3574 c-19 -18 -21 -55 -4 -72 9 -9 75 -12 235 -12 l223 0 16
25 c15 23 15 27 0 50 l-16 25 -220 0 c-185 0 -221 -2 -234 -16z"/>
<path d="M2946 4034 c-14 -13 -16 -61 -16 -374 l0 -359 22 -15 c19 -14 70 -16
358 -16 288 0 339 2 358 16 l22 15 0 363 c0 268 -3 365 -12 374 -9 9 -104 12
-364 12 -307 0 -355 -2 -368 -16z m644 -369 l0 -285 -280 0 -280 0 0 278 c0
153 3 282 7 285 3 4 129 7 280 7 l273 0 0 -285z"/>
<path d="M3334 3729 l-93 -91 -27 21 c-15 11 -34 21 -44 21 -22 0 -50 -31 -50
-57 0 -21 100 -123 121 -123 7 0 68 55 136 122 125 124 143 154 111 186 -29
29 -60 13 -154 -79z"/>
<path d="M1032 2928 c-9 -9 -12 -106 -12 -374 l0 -363 22 -15 c20 -14 114 -16
815 -16 780 0 793 0 813 20 19 19 20 33 20 368 0 298 -2 351 -16 370 l-15 22
-808 0 c-614 0 -810 -3 -819 -12z m1548 -373 l0 -285 -730 0 -730 0 0 285 0
285 730 0 730 0 0 -285z"/>
<path d="M1325 2714 c-23 -23 -15 -66 15 -81 31 -16 983 -19 1023 -4 33 13 43
46 23 76 l-16 25 -515 0 c-461 0 -515 -2 -530 -16z"/>
<path d="M1328 2469 c-21 -12 -24 -59 -6 -77 9 -9 75 -12 235 -12 l223 0 16
25 c15 23 15 27 0 50 l-16 25 -218 0 c-129 0 -224 -5 -234 -11z"/>
<path d="M2946 2924 c-14 -13 -16 -61 -16 -374 l0 -359 22 -15 c19 -14 70 -16
358 -16 288 0 339 2 358 16 l22 15 0 363 c0 268 -3 365 -12 374 -9 9 -104 12
-364 12 -307 0 -355 -2 -368 -16z m644 -369 l0 -285 -280 0 -280 0 0 278 c0
153 3 282 7 285 3 4 129 7 280 7 l273 0 0 -285z"/>
<path d="M3334 2619 l-93 -91 -27 21 c-15 11 -34 21 -44 21 -22 0 -50 -31 -50
-56 0 -29 90 -114 120 -114 19 0 56 31 143 118 119 119 136 149 105 180 -29
29 -60 13 -154 -79z"/>
<path d="M1032 1818 c-9 -9 -12 -106 -12 -374 l0 -363 22 -15 c20 -14 114 -16
815 -16 780 0 793 0 813 20 19 19 20 33 20 373 0 330 -1 355 -18 370 -17 16
-89 17 -823 17 -613 0 -808 -3 -817 -12z m1548 -373 l0 -285 -730 0 -730 0 0
285 0 285 730 0 730 0 0 -285z"/>
<path d="M1325 1604 c-23 -23 -15 -66 15 -81 31 -16 983 -19 1023 -4 33 13 43
46 23 76 l-16 25 -515 0 c-461 0 -515 -2 -530 -16z"/>
<path d="M1328 1359 c-21 -12 -24 -59 -6 -77 9 -9 75 -12 235 -12 l223 0 16
25 c15 23 15 27 0 50 l-16 25 -218 0 c-129 0 -224 -5 -234 -11z"/>
<path d="M2940 1811 c-6 -13 -10 -149 -10 -375 l0 -355 22 -15 c34 -24 682
-24 716 0 l22 15 0 363 c0 268 -3 365 -12 374 -9 9 -105 12 -370 12 -343 0
-358 -1 -368 -19z m650 -366 l0 -285 -280 0 -280 0 0 278 c0 153 3 282 7 285
3 4 129 7 280 7 l273 0 0 -285z"/>
<path d="M3334 1509 l-93 -91 -27 21 c-15 11 -34 21 -44 21 -22 0 -50 -31 -50
-56 0 -29 90 -114 120 -114 19 0 56 31 143 118 119 119 136 149 105 180 -29
29 -60 13 -154 -79z"/>
<path d="M4191 4643 c-13 -9 -21 -25 -21 -44 0 -26 7 -32 55 -55 62 -30 110
-81 126 -134 6 -23 9 -716 7 -2077 l-3 -2041 -31 -44 c-19 -26 -53 -54 -84
-71 l-52 -27 -1422 0 -1421 0 -51 24 c-54 25 -92 66 -117 128 -17 40 -46 55
-76 39 -30 -17 -34 -46 -12 -96 29 -65 66 -110 119 -144 100 -64 26 -61 1557
-61 1221 0 1398 2 1450 15 103 27 177 88 224 185 l26 55 0 2060 0 2060 -26 56
c-54 116 -193 211 -248 172z"/>
</g>
</svg>
