<svg width="26" height="28" viewBox="0 0 26 28" fill="none" xmlns="http://www.w3.org/2000/svg">
<path d="M20.5638 18.6439C19.2541 18.6439 18.0697 19.1731 17.23 20.022L10.0313 15.733C10.2093 15.2617 10.3073 14.7536 10.3073 14.2237C10.3073 13.6937 10.2093 13.1857 10.0313 12.7145L17.23 8.42527C18.0697 9.27415 19.2541 9.80365 20.5638 9.80365C23.0986 9.80365 25.1689 7.81888 25.1689 5.36882C25.1689 2.91875 23.0986 0.934197 20.5638 0.934197C18.029 0.934197 15.9587 2.91896 15.9587 5.36902C15.9587 5.89893 16.0569 6.40696 16.2347 6.87828L9.03621 11.1673C8.19655 10.3184 7.01209 9.78892 5.7024 9.78892C3.16759 9.78892 1.09728 11.7739 1.09728 14.2237C1.09728 16.6738 3.1676 18.6586 5.7024 18.6586C7.01208 18.6586 8.19655 18.1293 9.03622 17.2802L16.2347 21.5692C16.0569 22.0405 15.9587 22.5486 15.9587 23.0787C15.9587 25.5285 18.029 27.5133 20.5638 27.5133C23.0986 27.5133 25.1689 25.5285 25.1689 23.0787C25.1689 20.6286 23.0986 18.6439 20.5638 18.6439ZM17.8429 5.36902C17.8429 3.93306 19.059 2.75635 20.5638 2.75635C22.0686 2.75635 23.2847 3.93306 23.2847 5.36902C23.2847 6.80498 22.0686 7.9817 20.5638 7.9817C19.059 7.9817 17.8429 6.80498 17.8429 5.36902ZM5.7024 16.8364C4.19741 16.8364 2.98132 15.6597 2.98132 14.2237C2.98132 12.7878 4.19741 11.6111 5.7024 11.6111C7.20716 11.6111 8.42306 12.7878 8.42306 14.2237C8.42306 15.6597 7.20716 16.8364 5.7024 16.8364ZM17.8429 23.0785C17.8429 21.6425 19.059 20.4658 20.5638 20.4658C22.0686 20.4658 23.2847 21.6425 23.2847 23.0785C23.2847 24.5144 22.0686 25.6912 20.5638 25.6912C19.059 25.6912 17.8429 24.5144 17.8429 23.0785Z" fill="#252525" stroke="#252525" stroke-width="0.250746"/>
</svg>
